<?xml version="1.0" standalone="no"?>
<!DOCTYPE svg PUBLIC "-//W3C//DTD SVG 20010904//EN" "http://www.w3.org/TR/2001/REC-SVG-20010904/DTD/svg10.dtd">
<svg version="1.0" xmlns="http://www.w3.org/2000/svg" width="300.000000pt" height="300.000000pt" viewBox="0 0 300.000000 300.000000" preserveAspectRatio="xMidYMid meet">
<metadata>
Created by potrace 1.10, written by Peter Selinger 2001-2011
</metadata>
<g transform="translate(0.000000,300.000000) scale(0.100000,-0.100000)"
fill="#1b93f5" stroke="none">
<path d="M1880 2539 c-113 -24 -232 -104 -403 -269 l-132 -128 67 5 c46 4 91
0 143 -12 l75 -18 73 70 c87 84 126 108 203 128 147 37 323 -56 370 -197 12
-36 15 -72 12 -127 -7 -116 -28 -148 -257 -373 -177 -176 -202 -197 -256 -216
-82 -30 -185 -32 -247 -4 -63 28 -132 93 -172 164 l-33 59 -76 -77 c-43 -43
-77 -82 -77 -87 0 -5 21 -40 46 -78 153 -231 413 -302 662 -181 42 20 100 69
221 187 349 341 421 449 421 636 0 123 -52 239 -157 349 -135 142 -315 205
-483 169z"/>
<path d="M1370 2020 c-78 -12 -146 -37 -205 -75 -64 -41 -455 -433 -501 -502
-49 -74 -75 -154 -81 -254 -6 -97 6 -165 44 -247 95 -204 338 -336 560 -303
133 20 187 54 362 226 l155 153 -72 -6 c-39 -2 -99 1 -132 7 l-61 12 -71 -67
c-41 -38 -95 -77 -127 -92 -109 -50 -228 -40 -331 29 -50 34 -65 51 -92 107
-29 59 -33 76 -33 147 1 127 14 148 243 376 233 233 265 253 397 253 65 1 89
-4 129 -23 60 -30 126 -97 168 -170 l31 -53 80 80 80 81 -34 57 c-47 78 -143
173 -215 210 -90 48 -200 68 -294 54z"/>
</g>
</svg>
